<svg xmlns="http://www.w3.org/2000/svg" viewBox="0 0 40 40"><defs><style>.cls-1{isolation:isolate;}.cls-2{fill:#e15e23;fill-rule:evenodd;}</style></defs><title>item</title><g id="Слой_2" data-name="Слой 2"><g id="Forma_1" data-name="Forma 1" class="cls-1"><g id="Forma_1-2" data-name="Forma 1"><path class="cls-2" d="M34.14,5.86A20,20,0,0,0,5.86,34.14,20,20,0,1,0,34.14,5.86ZM20,37.66A17.66,17.66,0,1,1,37.66,20,17.68,17.68,0,0,1,20,37.66Zm7.9-24.07L17.55,23.93,12.1,18.48a1.17,1.17,0,1,0-1.66,1.66l6.28,6.28a1.17,1.17,0,0,0,1.66,0L29.56,15.24a1.17,1.17,0,0,0-1.66-1.66Z"/></g></g></g></svg>