<svg xmlns="http://www.w3.org/2000/svg" viewBox="0 0 209.18 93.58"><defs><style>.cls-1{fill:#2d2d2d;}.cls-2{fill:#e25e24;}.cls-3{fill:none;}</style></defs><title>logo</title><g id="Слой_2" data-name="Слой 2"><g id="Слой_1-2" data-name="Слой 1"><polygon class="cls-1" points="101.26 44.5 115.51 44.5 115.51 62.25 125.26 62.25 125.26 18.5 115.51 18.5 115.51 36.25 101.26 36.25 101.26 18.5 91.51 18.5 91.51 62.25 101.26 62.25 101.26 44.5"/><polygon class="cls-1" points="140.51 62.25 150.26 62.25 150.26 21.97 166.51 10.75 166.51 0 129.51 25.5 129.51 34.75 140.51 27.51 140.51 62.25"/><polygon class="cls-1" points="199.43 41.25 199.43 62.25 209.18 62.25 209.18 18.5 199.43 18.5 187.85 43.58 176.26 18.5 166.51 18.5 166.51 62.25 176.26 62.25 176.26 41.25 184.51 55.92 187.85 55.92 191.18 55.92 199.43 41.25"/><path class="cls-2" d="M144.94,72.66h-4.42V93.15h4.42v-8h15.9V72.66h-15.9Zm11.47,8H144.94V77.09h11.47Z"/><polygon class="cls-2" points="91.51 72.66 91.51 77.09 91.51 88.76 91.51 93.15 91.51 93.19 112 93.19 112 88.76 95.94 88.76 95.94 77.09 112 77.09 112 72.66 95.94 72.66 91.51 72.66"/><polygon class="cls-2" points="124.21 72.66 116.1 72.66 116.1 77.09 124.21 77.09 124.21 93.15 128.63 93.15 128.63 77.09 136.75 77.09 136.75 72.66 128.63 72.66 124.21 72.66"/><path class="cls-2" d="M180.66,72.66H164.44V93.19h20.65V72.66h-4.42Zm0,16.1h-11.8V77.09h11.8Z"/><polygon class="cls-2" points="204.75 72.66 204.75 88.76 195.07 88.76 192.96 86.65 192.96 72.66 188.53 72.66 188.53 88.76 193.13 93.19 209.18 93.19 209.18 72.66 204.75 72.66"/><rect class="cls-2" x="196.89" y="72.66" width="3.93" height="3.93"/><polygon class="cls-3" points="55.59 68.59 55.59 68.59 55.59 43.6 30.6 43.6 30.6 68.59 55.59 68.59"/><rect class="cls-2" y="13" width="24.99" height="24.99"/><polygon class="cls-1" points="30.6 18.6 30.6 43.6 55.59 43.6 55.59 68.59 55.59 68.59 30.6 68.59 30.6 43.6 5.6 43.6 5.6 93.58 55.59 93.58 80.58 93.58 80.58 68.59 80.58 18.6 30.6 18.6"/></g></g></svg>