<svg xmlns="http://www.w3.org/2000/svg" viewBox="0 0 52 52"><defs><style>.cls-1{isolation:isolate;}.cls-2{fill:#fff;fill-rule:evenodd;}</style></defs><title>price</title><g id="Слой_2" data-name="Слой 2"><g id="Forma_1" data-name="Forma 1" class="cls-1"><g id="Forma_1-2" data-name="Forma 1"><path class="cls-2" d="M51.31,30.21a4.37,4.37,0,0,0-3.17-1.79,3.15,3.15,0,0,0-2.55,1l-.46.49a4.35,4.35,0,0,0-2.59-1.14,3.15,3.15,0,0,0-2.55,1c-1.4,1.49-3.89,4.39-5.85,6.7a4,4,0,0,0-.82-.37c-.93-.4-13.81-5.89-19.51-5.89C4.59,30.12.35,35.07.18,35.28a.76.76,0,0,0,1.17,1,11.91,11.91,0,0,1,3-2.31,19.05,19.05,0,0,1,9.44-2.3c5.48,0,18.81,5.73,18.94,5.78l.08,0a2.49,2.49,0,0,1,1.64,3.12A2.51,2.51,0,0,1,33.31,42a2.63,2.63,0,0,1-2,.2L23,39.92a.76.76,0,1,0-.41,1.47l8.33,2.29A4,4,0,0,0,36.1,40l2.24-.24a.77.77,0,0,0,.51-.27c.06-.07,5.54-6.64,7.85-9.09,1-1,2.68-.3,3.37.67,1.07,1.49-.26,3.12-.69,3.58-2.12,2.27-6,7-6.71,7.81L26.82,50.4,11.66,44a.76.76,0,0,0-.3-.06H.76a.76.76,0,1,0,0,1.53H11.21l15.34,6.45a.77.77,0,0,0,.64,0l16.3-8.14a.76.76,0,0,0,.25-.2c0-.05,4.5-5.44,6.76-7.86C52.15,33.94,52.47,31.83,51.31,30.21ZM37.87,38.3l-2,.21a4.07,4.07,0,0,0-.6-1.11c1.66-2,4.37-5.13,5.82-6.66a1.64,1.64,0,0,1,1.34-.48,2.83,2.83,0,0,1,1.68.75C41.81,33.59,38.69,37.31,37.87,38.3ZM25.53,31.46a.77.77,0,0,0,1,0L43.64,16.81a.77.77,0,0,0-.5-1.34H36.57V6.82a.76.76,0,0,0-1.53,0v9.41a.76.76,0,0,0,.76.76h5.27L26,29.88,11,17h5.27a.76.76,0,0,0,.76-.76V1.53H35V3.31a.76.76,0,0,0,1.53,0V.76A.76.76,0,0,0,35.81,0H16.25a.76.76,0,0,0-.76.76v14.7H8.91a.77.77,0,0,0-.5,1.34ZM21.14,16.18a.76.76,0,0,0,.54-.22l9.78-9.77a.76.76,0,1,0-1.08-1.08L20.6,14.88A.77.77,0,0,0,21.14,16.18Zm9,0a2.39,2.39,0,1,0-2.39-2.39A2.4,2.4,0,0,0,30.11,16.18Zm0-3.26a.86.86,0,1,1-.87.86A.87.87,0,0,1,30.11,12.92ZM24.35,7.28A2.39,2.39,0,1,0,22,9.67,2.4,2.4,0,0,0,24.35,7.28Zm-3.26,0a.87.87,0,1,1,.87.86A.87.87,0,0,1,21.09,7.28Z"/></g></g></g></svg>