<svg xmlns="http://www.w3.org/2000/svg" viewBox="0 0 52 52"><defs><style>.cls-1{isolation:isolate;}.cls-2{fill:#fff;fill-rule:evenodd;}</style></defs><title>Ресурс 1</title><g id="Слой_2" data-name="Слой 2"><g id="Forma_1" data-name="Forma 1" class="cls-1"><g id="Forma_1-2" data-name="Forma 1"><path class="cls-2" d="M26,0A26,26,0,1,0,52,26,26,26,0,0,0,26,0Zm0,50.27A24.27,24.27,0,1,1,50.27,26,24.29,24.29,0,0,1,26,50.27Zm.87-27.72V13.76a.87.87,0,1,0-1.73,0v8.79A3.46,3.46,0,0,0,22.66,25H16.47a.87.87,0,1,0,0,1.73h6.19a3.46,3.46,0,1,0,4.21-4.21ZM26,27.63a1.73,1.73,0,1,1,1.73-1.73A1.74,1.74,0,0,1,26,27.63ZM26,8.56a.87.87,0,0,0,.87-.87V6.83a.87.87,0,1,0-1.73,0V7.7A.87.87,0,0,0,26,8.56Zm0,34.67a.87.87,0,0,0-.87.87V45a.87.87,0,1,0,1.73,0v-.87A.87.87,0,0,0,26,43.23ZM45.07,25H44.2a.87.87,0,1,0,0,1.73h.87a.87.87,0,1,0,0-1.73ZM7.8,25H6.93a.87.87,0,1,0,0,1.73H7.8A.87.87,0,1,0,7.8,25ZM38.87,11.8l-.61.61a.87.87,0,1,0,1.23,1.23l.61-.61a.87.87,0,0,0-1.23-1.23ZM12.52,38.15l-.61.61A.87.87,0,1,0,13.13,40l.61-.61a.87.87,0,0,0-1.23-1.23Zm27,0a.87.87,0,0,0-1.23,1.23l.61.61a.87.87,0,0,0,1.23-1.23ZM13.13,11.8A.87.87,0,0,0,11.91,13l.61.61a.87.87,0,0,0,1.23-1.23Z"/></g></g></g></svg>